REM DIRINDEX 1\2,1\3,1\4,1\5,1\6
REM DIRNAME cjc091,folder01,folder02,folder03,folder04,folder05
TITLE ""
FILE "CD1-51.mp3" MP3
  TRACK 01 AUDIO
    TITLE "6:cjc091_1019"
    INDEX 01 00:00:00
  TRACK 02 AUDIO
    TITLE "0:"
    INDEX 01 00:02:04
  TRACK 03 AUDIO
    TITLE "2:cjc091_1020"
    INDEX 01 00:03:27
  TRACK 04 AUDIO
    TITLE "0:"
    INDEX 01 00:05:46
  TRACK 05 AUDIO
    TITLE "3:cjc091_1021"
    INDEX 01 00:05:65
  TRACK 06 AUDIO
    TITLE "0:"
    INDEX 01 00:07:31
  TRACK 07 AUDIO
    TITLE "4:cjc091_1022"
    INDEX 01 00:07:58
  TRACK 08 AUDIO
    TITLE "0:"
    INDEX 01 00:11:50
  TRACK 09 AUDIO
    TITLE "2:cjc091_1023"
    INDEX 01 00:12:67
  TRACK 10 AUDIO
    TITLE "0:"
    INDEX 01 00:13:71
  TRACK 11 AUDIO
    TITLE "3:cjc091_1024"
    INDEX 01 00:14:06
  TRACK 12 AUDIO
    TITLE "0:"
    INDEX 01 00:15:11
  TRACK 13 AUDIO
    TITLE "4:cjc091_1025"
    INDEX 01 00:15:30
  TRACK 14 AUDIO
    TITLE "0:"
    INDEX 01 00:18:46
  TRACK 15 AUDIO
    TITLE "2:cjc091_1026"
    INDEX 01 00:19:60
  TRACK 16 AUDIO
    TITLE "0:"
    INDEX 01 00:21:19
  TRACK 17 AUDIO
    TITLE "3:cjc091_1027"
    INDEX 01 00:21:33
  TRACK 18 AUDIO
    TITLE "0:"
    INDEX 01 00:23:28
  TRACK 19 AUDIO
    TITLE "4:cjc091_1028"
    INDEX 01 00:24:39
  TRACK 20 AUDIO
    TITLE "0:"
    INDEX 01 00:29:17
  TRACK 21 AUDIO
    TITLE "2:cjc091_1029"
    INDEX 01 00:30:26
  TRACK 22 AUDIO
    TITLE "0:"
    INDEX 01 00:31:65
  TRACK 23 AUDIO
    TITLE "3:cjc091_1030"
    INDEX 01 00:32:19
  TRACK 24 AUDIO
    TITLE "0:"
    INDEX 01 00:33:73
  TRACK 25 AUDIO
    TITLE "4:cjc091_1031"
    INDEX 01 00:34:26
  TRACK 26 AUDIO
    TITLE "0:"
    INDEX 01 00:37:61
  TRACK 27 AUDIO
    TITLE "2:cjc091_1032"
    INDEX 01 00:38:73
  TRACK 28 AUDIO
    TITLE "0:"
    INDEX 01 00:40:28
  TRACK 29 AUDIO
    TITLE "3:cjc091_1033"
    INDEX 01 00:40:40
  TRACK 30 AUDIO
    TITLE "0:"
    INDEX 01 00:42:31
  TRACK 31 AUDIO
    TITLE "4:cjc091_1034"
    INDEX 01 00:42:55
  TRACK 32 AUDIO
    TITLE "0:"
    INDEX 01 00:46:19
  TRACK 33 AUDIO
    TITLE "2:cjc091_1035"
    INDEX 01 00:47:36
  TRACK 34 AUDIO
    TITLE "0:"
    INDEX 01 00:49:16
  TRACK 35 AUDIO
    TITLE "3:cjc091_1036"
    INDEX 01 00:49:33
  TRACK 36 AUDIO
    TITLE "0:"
    INDEX 01 00:51:22
  TRACK 37 AUDIO
    TITLE "4:cjc091_1037"
    INDEX 01 00:51:50
  TRACK 38 AUDIO
    TITLE "0:"
    INDEX 01 00:54:70
  TRACK 39 AUDIO
    TITLE "2:cjc091_1038"
    INDEX 01 00:56:00
  TRACK 40 AUDIO
    TITLE "0:"
    INDEX 01 00:57:07
  TRACK 41 AUDIO
    TITLE "3:cjc091_1039"
    INDEX 01 00:57:21
  TRACK 42 AUDIO
    TITLE "0:"
    INDEX 01 00:59:02
  TRACK 43 AUDIO
    TITLE "4:cjc091_1040"
    INDEX 01 00:59:28
  TRACK 44 AUDIO
    TITLE "0:"
    INDEX 01 01:02:22
  TRACK 45 AUDIO
    TITLE "2:cjc091_1041"
    INDEX 01 01:03:39
  TRACK 46 AUDIO
    TITLE "0:"
    INDEX 01 01:04:52
  TRACK 47 AUDIO
    TITLE "3:cjc091_1042"
    INDEX 01 01:04:72
  TRACK 48 AUDIO
    TITLE "0:"
    INDEX 01 01:06:61
  TRACK 49 AUDIO
    TITLE "4:cjc091_1043"
    INDEX 01 01:07:15
  TRACK 50 AUDIO
    TITLE "0:"
    INDEX 01 01:11:54
  TRACK 51 AUDIO
    TITLE "2:cjc091_1044"
    INDEX 01 01:12:73
  TRACK 52 AUDIO
    TITLE "0:"
    INDEX 01 01:14:68
  TRACK 53 AUDIO
    TITLE "3:cjc091_1045"
    INDEX 01 01:15:15
  TRACK 54 AUDIO
    TITLE "0:"
    INDEX 01 01:16:67
  TRACK 55 AUDIO
    TITLE "4:cjc091_1046"
    INDEX 01 01:17:20
  TRACK 56 AUDIO
    TITLE "0:"
    INDEX 01 01:21:49
  TRACK 57 AUDIO
    TITLE "2:cjc091_1047"
    INDEX 01 01:22:64
  TRACK 58 AUDIO
    TITLE "0:"
    INDEX 01 01:24:34
  TRACK 59 AUDIO
    TITLE "3:cjc091_1048"
    INDEX 01 01:24:37
  TRACK 60 AUDIO
    TITLE "0:"
    INDEX 01 01:26:01
  TRACK 61 AUDIO
    TITLE "4:cjc091_1049"
    INDEX 01 01:26:29
  TRACK 62 AUDIO
    TITLE "0:"
    INDEX 01 01:29:64
  TRACK 63 AUDIO
    TITLE "2:cjc091_1050"
    INDEX 01 01:31:06
  TRACK 64 AUDIO
    TITLE "0:"
    INDEX 01 01:32:49
  TRACK 65 AUDIO
    TITLE "3:cjc091_1051"
    INDEX 01 01:32:64
  TRACK 66 AUDIO
    TITLE "0:"
    INDEX 01 01:34:46
  TRACK 67 AUDIO
    TITLE "4:cjc091_1052"
    INDEX 01 01:34:67
  TRACK 68 AUDIO
    TITLE "0:"
    INDEX 01 01:36:74
  TRACK 69 AUDIO
    TITLE "2:cjc091_1053"
    INDEX 01 01:38:12
  TRACK 70 AUDIO
    TITLE "0:"
    INDEX 01 01:39:49
  TRACK 71 AUDIO
    TITLE "3:cjc091_1054"
    INDEX 01 01:39:64
  TRACK 72 AUDIO
    TITLE "0:"
    INDEX 01 01:41:28
  TRACK 73 AUDIO
    TITLE "4:cjc091_1055"
    INDEX 01 01:41:46
  TRACK 74 AUDIO
    TITLE "0:"
    INDEX 01 01:44:13
  TRACK 75 AUDIO
    TITLE "2:cjc091_1056"
    INDEX 01 01:45:26
  TRACK 76 AUDIO
    TITLE "0:"
    INDEX 01 01:46:29
  TRACK 77 AUDIO
    TITLE "3:cjc091_1057"
    INDEX 01 01:46:55
  TRACK 78 AUDIO
    TITLE "0:"
    INDEX 01 01:48:26
  TRACK 79 AUDIO
    TITLE "4:cjc091_1058"
    INDEX 01 01:48:46
  TRACK 80 AUDIO
    TITLE "0:"
    INDEX 01 01:51:34
  TRACK 81 AUDIO
    TITLE "2:cjc091_1059"
    INDEX 01 01:52:49
  TRACK 82 AUDIO
    TITLE "0:"
    INDEX 01 01:54:01
  TRACK 83 AUDIO
    TITLE "3:cjc091_1060"
    INDEX 01 01:54:21
  TRACK 84 AUDIO
    TITLE "0:"
    INDEX 01 01:56:47
  TRACK 85 AUDIO
    TITLE "4:cjc091_1061"
    INDEX 01 01:56:71
  TRACK 86 AUDIO
    TITLE "0:"
    INDEX 01 02:01:56
  TRACK 87 AUDIO
    TITLE "2:cjc091_1062"
    INDEX 01 02:02:73
  TRACK 88 AUDIO
    TITLE "0:"
    INDEX 01 02:04:23
  TRACK 89 AUDIO
    TITLE "3:cjc091_1063"
    INDEX 01 02:04:43
  TRACK 90 AUDIO
    TITLE "0:"
    INDEX 01 02:06:16
  TRACK 91 AUDIO
    TITLE "4:cjc091_1064"
    INDEX 01 02:06:34
  TRACK 92 AUDIO
    TITLE "0:"
    INDEX 01 02:09:58
